<svg width="81" height="40" viewBox="0 0 81 40" fill="none" xmlns="http://www.w3.org/2000/svg">
<path d="M55.2383 22.008L63.0449 0H53.2085C50.5855 0 49.6175 1.60643 48.6807 3.53414L40.2495 26.506H49.9297C53.1773 26.506 54.4576 24.4177 55.2383 22.008Z" fill="#E5406E"/>
<path fill-rule="evenodd" clip-rule="evenodd" d="M14.158 37.3983L18.0786 26.3455H8.24225C5.61922 26.3455 4.6512 27.9519 3.7144 29.8796L0 40H9.64741C11.9926 40 13.3119 38.9109 14.158 37.3983Z" fill="#E5406E"/>
<path d="M33.0677 34.8594L45.5583 0H36.0342C33.1614 0 31.9748 1.76707 30.7257 4.65863L17.9229 40H27.2908C30.1637 40 32.2871 37.1084 33.0677 34.8594Z" fill="#E5406E"/>
<path d="M68.5096 34.8594L81.0002 0H71.4761C68.6033 0 67.4167 1.76707 66.1676 4.65863L53.3647 40H62.7327C65.6056 40 67.729 37.1084 68.5096 34.8594Z" fill="#E5406E"/>
</svg>
